<svg xmlns="http://www.w3.org/2000/svg" width="495" height="392" viewBox="0 0 495 392">
  <rect width="494" height="391" x=".5" y=".5" rx="4.5" fill="#1a1b27" stroke="#e4e2e2" stroke-opacity=".1"/>
  <text font-family="'Segoe UI', Ubuntu, 'Helvetica Neue', sans-serif" font-size="17" font-weight="600" fill="#e4e2e2" x="25" y="35" text-anchor="start">Top Languages</text>
  <text font-family="'Segoe UI', Ubuntu, 'Helvetica Neue', sans-serif" font-size="11" font-weight="400" fill="#9f9f9f" x="25" y="50" text-anchor="start">(public + private repos)</text>
  <line x1="25" x2="470" y1="55" y2="55" stroke="#e4e2e2" stroke-opacity=".1"/>
  <text font-family="'Segoe UI', Ubuntu, 'Helvetica Neue', sans-serif" font-size="13" font-weight="400" fill="#9f9f9f" x="25" y="78" text-anchor="start">C#</text>
  <rect x="143" y="66" width="272" height="8" rx="4" fill="#2d2d3f"/>
  <rect x="143" y="66" width="125" height="8" rx="4" fill="#178600"/>
  <text font-family="'Segoe UI', Ubuntu, 'Helvetica Neue', sans-serif" font-size="12" font-weight="400" fill="#e4e2e2" x="425" y="78" text-anchor="start">46.1%</text>
  <text font-family="'Segoe UI', Ubuntu, 'Helvetica Neue', sans-serif" font-size="13" font-weight="400" fill="#9f9f9f" x="25" y="116" text-anchor="start">Visual Basic .NET</text>
  <rect x="143" y="104" width="272" height="8" rx="4" fill="#2d2d3f"/>
  <rect x="143" y="104" width="67" height="8" rx="4" fill="#945db7"/>
  <text font-family="'Segoe UI', Ubuntu, 'Helvetica Neue', sans-serif" font-size="12" font-weight="400" fill="#e4e2e2" x="425" y="116" text-anchor="start">24.9%</text>
  <text font-family="'Segoe UI', Ubuntu, 'Helvetica Neue', sans-serif" font-size="13" font-weight="400" fill="#9f9f9f" x="25" y="154" text-anchor="start">TypeScript</text>
  <rect x="143" y="142" width="272" height="8" rx="4" fill="#2d2d3f"/>
  <rect x="143" y="142" width="45" height="8" rx="4" fill="#3178c6"/>
  <text font-family="'Segoe UI', Ubuntu, 'Helvetica Neue', sans-serif" font-size="12" font-weight="400" fill="#e4e2e2" x="425" y="154" text-anchor="start">16.9%</text>
  <text font-family="'Segoe UI', Ubuntu, 'Helvetica Neue', sans-serif" font-size="13" font-weight="400" fill="#9f9f9f" x="25" y="192" text-anchor="start">Inno Setup</text>
  <rect x="143" y="180" width="272" height="8" rx="4" fill="#2d2d3f"/>
  <rect x="143" y="180" width="18" height="8" rx="4" fill="#264b99"/>
  <text font-family="'Segoe UI', Ubuntu, 'Helvetica Neue', sans-serif" font-size="12" font-weight="400" fill="#e4e2e2" x="425" y="192" text-anchor="start">6.8%</text>
  <text font-family="'Segoe UI', Ubuntu, 'Helvetica Neue', sans-serif" font-size="13" font-weight="400" fill="#9f9f9f" x="25" y="230" text-anchor="start">PowerShell</text>
  <rect x="143" y="218" width="272" height="8" rx="4" fill="#2d2d3f"/>
  <rect x="143" y="218" width="5" height="8" rx="4" fill="#012456"/>
  <text font-family="'Segoe UI', Ubuntu, 'Helvetica Neue', sans-serif" font-size="12" font-weight="400" fill="#e4e2e2" x="425" y="230" text-anchor="start">2.0%</text>
  <text font-family="'Segoe UI', Ubuntu, 'Helvetica Neue', sans-serif" font-size="13" font-weight="400" fill="#9f9f9f" x="25" y="268" text-anchor="start">HTML</text>
  <rect x="143" y="256" width="272" height="8" rx="4" fill="#2d2d3f"/>
  <rect x="143" y="256" width="5" height="8" rx="4" fill="#e34c26"/>
  <text font-family="'Segoe UI', Ubuntu, 'Helvetica Neue', sans-serif" font-size="12" font-weight="400" fill="#e4e2e2" x="425" y="268" text-anchor="start">2.0%</text>
  <text font-family="'Segoe UI', Ubuntu, 'Helvetica Neue', sans-serif" font-size="13" font-weight="400" fill="#9f9f9f" x="25" y="306" text-anchor="start">Python</text>
  <rect x="143" y="294" width="272" height="8" rx="4" fill="#2d2d3f"/>
  <rect x="143" y="294" width="2" height="8" rx="4" fill="#3572A5"/>
  <text font-family="'Segoe UI', Ubuntu, 'Helvetica Neue', sans-serif" font-size="12" font-weight="400" fill="#e4e2e2" x="425" y="306" text-anchor="start">0.9%</text>
  <text font-family="'Segoe UI', Ubuntu, 'Helvetica Neue', sans-serif" font-size="13" font-weight="400" fill="#9f9f9f" x="25" y="344" text-anchor="start">JavaScript</text>
  <rect x="143" y="332" width="272" height="8" rx="4" fill="#2d2d3f"/>
  <rect x="143" y="332" width="1" height="8" rx="4" fill="#f1e05a"/>
  <text font-family="'Segoe UI', Ubuntu, 'Helvetica Neue', sans-serif" font-size="12" font-weight="400" fill="#e4e2e2" x="425" y="344" text-anchor="start">0.5%</text>
  <text font-family="'Segoe UI', Ubuntu, 'Helvetica Neue', sans-serif" font-size="10" font-weight="400" fill="#9f9f9f" x="470" y="384" text-anchor="end">Updated 2026-05-31</text>
</svg>